<svg width="21" height="16" viewBox="0 0 21 16" fill="none" xmlns="http://www.w3.org/2000/svg">
<path d="M20.9539 1.89584C20.2001 2.22182 19.4025 2.43658 18.5864 2.53334C19.4441 2.0335 20.0891 1.23941 20.4004 0.300007C19.5896 0.77192 18.7039 1.10304 17.7814 1.27917C17.3929 0.873978 16.9257 0.551634 16.4082 0.331734C15.8906 0.111834 15.3336 -0.00102805 14.7708 7.05601e-06C12.4926 7.05601e-06 10.6488 1.80834 10.6488 4.03751C10.6472 4.34758 10.6829 4.65672 10.7552 4.95834C9.12144 4.88212 7.52171 4.46733 6.0583 3.74053C4.59489 3.01373 3.30002 1.99091 2.25654 0.737507C1.89046 1.35172 1.69686 2.05253 1.69597 2.76667C1.69597 4.16667 2.42986 5.40417 3.53803 6.12917C2.88147 6.11367 2.23837 5.94072 1.66331 5.62501V5.67501C1.66331 7.63334 3.08672 9.26251 4.97065 9.63334C4.61638 9.72733 4.25131 9.77496 3.88467 9.77501C3.62451 9.77546 3.36495 9.75034 3.10975 9.70001C3.63348 11.3042 5.15779 12.4708 6.96343 12.5042C5.49622 13.6296 3.69486 14.2378 1.84249 14.2333C1.51369 14.2329 1.1852 14.2134 0.858665 14.175C2.74309 15.3726 4.93358 16.0061 7.16941 16C14.7621 16 18.91 9.84584 18.91 4.50834C18.91 4.33334 18.9054 4.15834 18.8971 3.98751C19.7022 3.41753 20.3987 2.70922 20.9539 1.89584Z" fill="#323232"/>
</svg>
